<?xml version="1.0"?>
<svg width="640" height="480" xmlns="http://www.w3.org/2000/svg" xmlns:svg="http://www.w3.org/2000/svg">
 <!-- Created with SVG-edit - https://github.com/SVG-Edit/svgedit-->
 <g class="layer">
  <title>Layer 1</title>
  <rect fill="#aaffff" height="111.000002" id="svg_1" stroke="#000000" stroke-dasharray="null" stroke-linecap="null" stroke-linejoin="null" stroke-width="5" width="211.999995" x="47.5" y="52.699998"/>
  <text fill="#005fbf" font-family="serif" font-size="24" id="svg_2" stroke="#7f00ff" stroke-dasharray="null" stroke-linecap="null" stroke-linejoin="null" stroke-width="0" text-anchor="middle" transform="matrix(1.67283 0 0 1.66246 -61.9131 -77.3362)" x="107.5" xml:space="preserve" y="132.7">JEMA</text>
  <ellipse cx="230.800002" cy="80.4" fill="#ffff00" id="svg_3" rx="17.499999" ry="17.5" stroke="#ffaaaa" stroke-dasharray="null" stroke-linecap="null" stroke-linejoin="null" stroke-width="5"/>
  <path d="m51.299999,74.900002c0.020534,1 0.844074,1.009811 1.576814,1.610664c0.643912,0.528015 0.995594,1.228561 1.378396,2.104004c0.334967,0.766052 0.706066,1.647369 1.343245,2.23716c0.648593,0.600357 1.476859,0.869095 1.900552,1.400002c0.662348,0.829941 1.125985,1.383003 1.633149,2.009834c0.52175,0.644859 0.587374,1.622276 0.873161,2.471664c0.291354,0.865929 1.101181,1.08242 1.705581,1.777336c0.580231,0.66713 0.801725,1.5326 1.250941,2.389336c0.348388,0.664436 0.876856,1.279205 1.659592,1.799995c0.723104,0.481117 1.189865,1.242554 1.54396,2c0.40455,0.865372 1.104308,1.395485 1.69113,2c0.674514,0.694855 1.036951,1.565346 1.530163,2.147339c0.546919,0.64537 1.314636,1.041275 1.919112,1.757996c0.4564,0.541145 1.166869,1.142365 1.774081,1.737335c0.628709,0.616035 1.227613,1.246376 2.008954,1.571999c0.81977,0.341637 1.361945,0.974915 2.218045,0.985336c0.95374,0.011604 1.784427,0 2.671385,0c0.886958,0 1.790991,0 2.572009,0c0.7958,0 1.74369,0 2.640663,0c0.930319,0 1.628389,0 2.7701,0c0.601649,0 1.463719,0.011002 2.449152,-0.001335c0.823544,-0.010307 1.699886,-0.034721 2.577099,-0.220665c0.91962,-0.194931 1.564825,-0.465149 2.237429,-0.835335c1.185245,-0.652321 1.575585,-0.987625 2.423031,-1.608002c0.424821,-0.310989 1.204643,-0.96151 2.27061,-1.667999c0.718273,-0.476051 1.459637,-0.726425 2.177316,-1.109497c0.717326,-0.382889 1.45287,-0.879501 2.280625,-1.5355c0.69513,-0.550888 1.288817,-1.190414 1.820894,-1.726166c0.682807,-0.687515 1.590397,-1.038651 2.262234,-1.628838c0.611709,-0.537369 0.880499,-1.51741 1.404674,-2.091995c0.602145,-0.660057 1.303817,-1.247536 1.84224,-1.926506c0.576002,-0.726364 0.746815,-1.760902 1.296929,-2.212166c0.759085,-0.622681 1.620179,-0.862473 2.354708,-1.269333c0.750567,-0.415741 1.435749,-0.998642 1.68981,-1.683998c0.371873,-1.003174 0.795394,-1.410393 1.291674,-2.093338c0.514866,-0.708534 1.130222,-1.100311 1.946052,-1.556c0.723612,-0.404182 0.921176,-1.36541 1.333057,-2.133331c0.451054,-0.84095 0.760837,-1.733459 1.239771,-2.299995c0.628318,-0.743248 1.624803,-0.876663 2.190451,-1.566673c0.535588,-0.653343 0.177211,-1.683777 0.677536,-2.333328c0.591919,-0.768456 1.293253,-1.26915 1.851931,-1.910667c0.629852,-0.723244 0.667228,-1.650108 1.457404,-2.346336c0.544701,-0.479942 1.464862,-0.396858 2.449152,-0.23233c0.855266,0.142967 1.604156,0.869438 2.4007,0.987999c0.818289,0.121796 1.670337,0.555656 2.147572,1.001335c0.787401,0.735336 1.457043,1.428764 1.991556,2.020828c0.438107,0.485291 0.787371,1.569199 1.337493,2.274673c0.577431,0.740486 1.43602,0.95826 1.785901,1.591164c0.450753,0.815392 1.11035,1.459724 1.638577,2.226669c0.495295,0.719116 1.585179,0.589653 2.065616,1.322662c0.47337,0.722237 0.273745,1.856979 0.86068,2.278671c0.712288,0.511749 1.386261,1.135132 1.674051,1.80616c0.304016,0.70887 0.758664,1.691788 1.478261,2.479172c0.534483,0.584839 1.000801,1.209129 1.498787,2c0.505821,0.803299 1.402516,0.919266 2.013556,1.610664c0.582528,0.659134 1.113914,1.043106 1.840924,1.55867c0.704845,0.499847 0.662514,1.468643 1.119538,2.230667c0.506648,0.84478 1.171463,1.575699 1.34029,2.389328c0.14794,0.713005 0.001654,1.861153 0.490122,2.599998c0.494603,0.748138 0.891251,1.344437 1.316967,2.019669c0.514423,0.815926 1.337644,1.436424 1.87739,2.257668c0.461911,0.702835 0.228768,1.56665 0.608393,2.447998c0.319309,0.741295 0.439866,1.6492 0.776574,2.485336c0.290888,0.722374 1.184636,0.945114 1.878713,1.721336c0.550468,0.615623 0.929236,1.651489 1.002425,2.374161c0.094827,0.936447 0.30158,1.781387 0.570769,2.479172c0.359701,0.932419 0.401986,1.754311 0.848845,2.639999c0.458874,0.909508 1.191463,1.232254 1.624126,1.986664c0.411971,0.718323 0.742153,1.528206 0.927687,2.373337c0.209189,0.952866 0.665326,1.561821 0.913071,2.482498c0.198286,0.736877 0.579521,1.762985 1.032981,2.301163c0.704815,0.836494 0.82895,1.668633 1.337493,2.337166c0.568619,0.747482 1.479704,0.928986 1.619194,1.804504c0.143955,0.903534 0.645882,1.697906 1.478095,1.879166c0.877702,0.191162 1.79542,0.020828 2.525362,0.020828c0.699221,0 1.880503,0 2.571678,0c0.738469,0 1.508487,0 2.689453,0c0.814018,0 1.699014,0 2.182895,0c1.080109,0 2.349452,0 3.066898,0c0.764755,0 1.564983,0 2.388866,0c0.835717,0 1.671419,0 2.495302,0c0.800243,0 2.282444,0 2.944371,0c0.612664,0 1.72957,0 2.253527,0c1.028214,0 1.552171,0 3.280267,0c0.651581,0 1.344561,0 2.079902,0c0.778725,0 1.60178,0 2.470174,0c0.914725,0 2.887048,0 3.945322,0c1.100651,0 2.236775,0 3.401471,0c1.186395,0 2.387557,0 3.596614,0c1.210034,0 3.605471,0 4.779385,0c1.161087,0 2.316264,0 3.472433,0c1.164049,0 2.34288,0 3.543396,0c1.229087,0 3.8006,0 5.152725,0c1.383644,0 2.781093,0 4.174601,0c1.371824,0 2.704235,0 3.979473,0c1.20035,0 3.305395,0 4.179549,0c0.757852,0 1.411238,0 1.971992,0c0.479942,0 0.890905,0 1.244696,0c0.308467,0 0.836695,0 1.078305,0c0.232753,0 0.457611,0 0.675566,0c0.212046,0 0.419174,0 0.622348,0c0.200226,0 0.595746,0 0.792679,0c0.195956,0 0.389926,0 0.580964,0c0.187068,0 0.369234,0 0.545476,0l0.995853,-0.010666l0.637295,-0.489334" fill="#ffff00" id="svg_6" stroke="#00007f" stroke-dasharray="null" stroke-linecap="null" stroke-linejoin="null" stroke-width="5"/>
 </g>
</svg>